<svg width="3026" height="710" viewBox="0 0 3026 710" fill="none" xmlns="http://www.w3.org/2000/svg">
<path d="M329.9 448.232L473.334 132.677V591.667H14.3442L329.9 448.232Z" fill="#212121"/>
<path d="M143.434 261.768L5.29048e-05 577.323L5.29048e-05 118.333L458.99 118.333L143.434 261.768Z" fill="#8566FF"/>
<path d="M876.595 412.84C878.752 428.403 882.99 440.036 889.307 447.74C900.863 461.761 920.662 468.771 948.705 468.771C965.499 468.771 979.136 466.923 989.613 463.225C1009.49 456.137 1019.43 442.963 1019.43 423.703C1019.43 412.455 1014.5 403.75 1004.64 397.587C994.775 391.577 979.29 386.262 958.181 381.639L922.126 373.55C886.688 365.538 862.189 356.832 848.63 347.434C825.672 331.717 814.193 307.142 814.193 273.706C814.193 243.199 825.287 217.852 847.474 197.668C869.662 177.484 902.25 167.391 945.238 167.391C981.139 167.391 1011.72 176.944 1036.99 196.05C1062.42 215.002 1075.74 242.582 1076.98 278.791H1008.56C1007.33 258.298 998.395 243.738 981.755 235.109C970.661 229.408 956.871 226.558 940.384 226.558C922.049 226.558 907.411 230.256 896.472 237.652C885.532 245.048 880.062 255.371 880.062 268.622C880.062 280.794 885.455 289.885 896.241 295.894C903.174 299.9 917.966 304.599 940.616 309.992L999.32 324.091C1025.05 330.254 1044.47 338.497 1057.56 348.82C1077.9 364.845 1088.07 388.034 1088.07 418.387C1088.07 449.512 1076.13 475.397 1052.25 496.044C1028.52 516.536 994.929 526.783 951.478 526.783C907.103 526.783 872.204 516.69 846.781 496.506C821.358 476.167 808.646 448.279 808.646 412.84H876.595ZM1248.47 471.545C1267.73 471.545 1282.52 464.688 1292.84 450.975C1303.17 437.262 1308.33 417.771 1308.33 392.502C1308.33 367.233 1303.17 347.819 1292.84 334.26C1282.52 320.547 1267.73 313.69 1248.47 313.69C1229.21 313.69 1214.34 320.547 1203.86 334.26C1193.54 347.819 1188.38 367.233 1188.38 392.502C1188.38 417.771 1193.54 437.262 1203.86 450.975C1214.34 464.688 1229.21 471.545 1248.47 471.545ZM1377.43 392.502C1377.43 429.481 1366.8 461.145 1345.54 487.492C1324.27 513.686 1291.99 526.783 1248.7 526.783C1205.4 526.783 1173.12 513.686 1151.86 487.492C1130.6 461.145 1119.96 429.481 1119.96 392.502C1119.96 356.139 1130.6 324.63 1151.86 297.974C1173.12 271.318 1205.4 257.99 1248.7 257.99C1291.99 257.99 1324.27 271.318 1345.54 297.974C1366.8 324.63 1377.43 356.139 1377.43 392.502ZM1490.45 266.079V417.925C1490.45 432.255 1492.14 443.04 1495.53 450.282C1501.54 463.071 1513.33 469.465 1530.9 469.465C1553.39 469.465 1568.8 460.374 1577.12 442.193C1581.43 432.332 1583.59 419.312 1583.59 403.133V266.079H1650.38V518H1586.36V482.408C1585.75 483.178 1584.21 485.489 1581.74 489.341C1579.28 493.193 1576.35 496.583 1572.96 499.51C1562.64 508.755 1552.62 515.072 1542.91 518.462C1533.36 521.852 1522.11 523.547 1509.17 523.547C1471.88 523.547 1446.77 510.142 1433.83 483.332C1426.58 468.54 1422.96 446.738 1422.96 417.925V266.079H1490.45ZM1781.43 518H1715.56V177.329H1781.43V518Z" fill="#8566FF"/>
<path d="M1902.77 412.84C1904.92 428.403 1909.16 440.036 1915.48 447.74C1927.03 461.761 1946.83 468.771 1974.88 468.771C1991.67 468.771 2005.31 466.923 2015.78 463.225C2035.66 456.137 2045.6 442.963 2045.6 423.703C2045.6 412.455 2040.67 403.75 2030.81 397.587C2020.95 391.577 2005.46 386.262 1984.35 381.639L1948.3 373.55C1912.86 365.538 1888.36 356.832 1874.8 347.434C1851.84 331.717 1840.36 307.142 1840.36 273.706C1840.36 243.199 1851.46 217.852 1873.65 197.668C1895.83 177.484 1928.42 167.391 1971.41 167.391C2007.31 167.391 2037.9 176.944 2063.16 196.05C2088.59 215.002 2101.92 242.582 2103.15 278.791H2034.74C2033.5 258.298 2024.57 243.738 2007.93 235.109C1996.83 229.408 1983.04 226.558 1966.56 226.558C1948.22 226.558 1933.58 230.256 1922.64 237.652C1911.7 245.048 1906.23 255.371 1906.23 268.622C1906.23 280.794 1911.63 289.885 1922.41 295.894C1929.35 299.9 1944.14 304.599 1966.79 309.992L2025.49 324.091C2051.22 330.254 2070.64 338.497 2083.73 348.82C2104.07 364.845 2114.24 388.034 2114.24 418.387C2114.24 449.512 2102.3 475.397 2078.42 496.044C2054.69 516.536 2021.1 526.783 1977.65 526.783C1933.28 526.783 1898.38 516.69 1872.95 496.506C1847.53 476.167 1834.82 448.279 1834.82 412.84H1902.77ZM2135.74 315.308V268.391H2170.87V198.13H2236.04V268.391H2276.95V315.308H2236.04V448.433C2236.04 458.756 2237.35 465.228 2239.97 467.847C2242.59 470.312 2250.6 471.545 2264.01 471.545C2266.01 471.545 2268.09 471.545 2270.25 471.545C2272.56 471.391 2274.79 471.237 2276.95 471.083V520.311L2245.75 521.467C2214.62 522.545 2193.36 517.153 2181.96 505.288C2174.56 497.738 2170.87 486.105 2170.87 470.389V315.308H2135.74ZM2432.26 471.545C2451.52 471.545 2466.31 464.688 2476.64 450.975C2486.96 437.262 2492.12 417.771 2492.12 392.502C2492.12 367.233 2486.96 347.819 2476.64 334.26C2466.31 320.547 2451.52 313.69 2432.26 313.69C2413 313.69 2398.13 320.547 2387.66 334.26C2377.33 347.819 2372.17 367.233 2372.17 392.502C2372.17 417.771 2377.33 437.262 2387.66 450.975C2398.13 464.688 2413 471.545 2432.26 471.545ZM2561.23 392.502C2561.23 429.481 2550.6 461.145 2529.33 487.492C2508.07 513.686 2475.79 526.783 2432.49 526.783C2389.2 526.783 2356.92 513.686 2335.65 487.492C2314.39 461.145 2303.76 429.481 2303.76 392.502C2303.76 356.139 2314.39 324.63 2335.65 297.974C2356.92 271.318 2389.2 257.99 2432.49 257.99C2475.79 257.99 2508.07 271.318 2529.33 297.974C2550.6 324.63 2561.23 356.139 2561.23 392.502ZM2745.43 260.07C2746.66 260.07 2747.66 260.147 2748.43 260.301C2749.36 260.301 2751.29 260.378 2754.21 260.533V328.02C2750.05 327.557 2746.35 327.249 2743.12 327.095C2739.88 326.941 2737.26 326.864 2735.26 326.864C2708.76 326.864 2690.96 335.492 2681.87 352.749C2676.79 362.456 2674.25 377.402 2674.25 397.587V518H2607.91V266.079H2670.78V309.992C2680.95 293.197 2689.81 281.719 2697.36 275.555C2709.68 265.232 2725.71 260.07 2745.43 260.07ZM2803.21 566.304L2811.53 566.766C2818 567.074 2824.16 566.843 2830.02 566.073C2835.87 565.303 2840.81 563.531 2844.81 560.757C2848.66 558.138 2852.21 552.668 2855.44 544.348C2858.83 536.027 2860.22 530.943 2859.6 529.094L2767.16 266.079H2840.42L2895.43 451.9L2947.43 266.079H3017.46L2931.02 513.84C2914.38 561.605 2901.2 591.188 2891.5 602.59C2881.79 614.146 2862.38 619.924 2833.26 619.924C2827.4 619.924 2822.7 619.847 2819.16 619.693C2815.61 619.693 2810.3 619.462 2803.21 618.999V566.304Z" fill="black"/>
</svg>
